<svg width="34" height="21" viewBox="0 0 34 21" fill="none" xmlns="http://www.w3.org/2000/svg">
<g clip-path="url(#clip0_1244_6118)">
<path d="M11.4429 0.476151C11.5941 0.627081 11.7141 0.80634 11.7959 1.00367C11.8777 1.201 11.9198 1.41253 11.9198 1.62615C11.9198 1.83978 11.8777 2.0513 11.7959 2.24863C11.7141 2.44596 11.5941 2.62522 11.4429 2.77615L5.54994 8.66915L31.9609 8.66915C32.3919 8.66915 32.8052 8.84035 33.11 9.1451C33.4147 9.44985 33.5859 9.86317 33.5859 10.2942C33.5859 10.7251 33.4147 11.1385 33.11 11.4432C32.8052 11.7479 32.3919 11.9192 31.9609 11.9192L5.55394 11.9192L11.4429 17.8072C11.594 17.9582 11.7138 18.1375 11.7955 18.3348C11.8772 18.5321 11.9193 18.7436 11.9193 18.9572C11.9193 19.3885 11.7479 19.8022 11.4429 20.1072C11.1379 20.4121 10.7243 20.5835 10.2929 20.5835C9.8616 20.5835 9.44794 20.4121 9.14294 20.1072L0.475937 11.4402C0.324517 11.2894 0.20437 11.1101 0.122387 10.9128C0.0404042 10.7154 -0.00180054 10.5038 -0.00180054 10.2902C-0.00180054 10.0765 0.0404042 9.86486 0.122387 9.66751C0.20437 9.47016 0.324517 9.29095 0.475937 9.14015L9.14294 0.473152C9.29406 0.322168 9.47348 0.202465 9.67092 0.12089C9.86835 0.0393146 10.0799 -0.00253122 10.2936 -0.00225258C10.5072 -0.00197394 10.7187 0.040423 10.9159 0.122513C11.1131 0.204603 11.2922 0.324773 11.4429 0.476151Z" fill="white"/>
</g>
<defs>
<clipPath id="clip0_1244_6118">
<rect width="33.585" height="20.582" fill="white"/>
</clipPath>
</defs>
</svg>
