<!-- <svg xmlns="http://www.w3.org/2000/svg" width="33.585" height="20.582" viewBox="0 0 33.585 20.582">
  <path id="Shape" d="M22.143,20.106a1.625,1.625,0,0,1,0-2.3l5.893-5.893H1.625a1.625,1.625,0,1,1,0-3.25H28.032L22.143,2.775a1.626,1.626,0,0,1,2.3-2.3l8.667,8.667a1.623,1.623,0,0,1,0,2.3l-8.667,8.667A1.625,1.625,0,0,1,22.143,20.106Z" transform="translate(0 0)" fill="#141124"/>
</svg> -->
<svg xmlns="http://www.w3.org/2000/svg" width="33.585" height="20.582" viewBox="0 0 33.585 20.582">
  <path id="Shape" d="M22.143,20.106a1.625,1.625,0,0,1,0-2.3l5.893-5.893H1.625a1.625,1.625,0,1,1,0-3.25H28.032L22.143,2.775a1.626,1.626,0,0,1,2.3-2.3l8.667,8.667a1.623,1.623,0,0,1,0,2.3l-8.667,8.667A1.625,1.625,0,0,1,22.143,20.106Z" 
    transform="rotate(180 16.7925 10.291)" fill="#141124"/>
</svg>
