<svg xmlns="http://www.w3.org/2000/svg" width="30.223" height="30.264" viewBox="0 0 30.223 30.264">
  <g id="Group_7805" data-name="Group 7805" transform="translate(-1619.888 -60.74)">
    <path id="形状" d="M31.544,3a1.679,1.679,0,0,1,1.668,1.483l.011.2v8.4a1.679,1.679,0,0,1-3.347.2l-.011-.2V8.733L21.817,16.78A1.679,1.679,0,0,1,19.3,14.564l.14-.158L27.49,6.358H23.148a1.679,1.679,0,0,1-.2-3.347l.2-.011Z" transform="translate(1669.063 78.012) rotate(180)"/>
    <path id="形状-2" data-name="形状" d="M14.406,19.443a1.679,1.679,0,0,1,2.514,2.216l-.14.158L8.733,29.865h4.342a1.679,1.679,0,0,1,.2,3.347l-.2.011h-8.4a1.679,1.679,0,0,1-1.668-1.483L3,31.544v-8.4a1.679,1.679,0,0,1,3.347-.2l.011.2V27.49Z" transform="translate(1637.16 109.914) rotate(-180)"/>
    <path id="Subtraction_5" data-name="Subtraction 5" d="M-22917,186h-10.5v-2h10.5a2,2,0,0,0,2-2V171.5h2V182A4.006,4.006,0,0,1-22917,186Zm-24-14.5h-2V160a4,4,0,0,1,3.994-4h10.5v2h-10.5a2,2,0,0,0-2,2v11.5Z" transform="translate(24563 -95)"/>
  </g>
</svg>
