<svg xmlns="http://www.w3.org/2000/svg" width="15.913" height="19.449" viewBox="0 0 15.913 19.449">
  <g id="copy-svgrepo-com_1_" data-name="copy-svgrepo-com (1)" transform="translate(0 0)">
    <path id="Path_31462" data-name="Path 31462" d="M19.377,7.652A2.652,2.652,0,0,0,16.724,5H9.652A2.652,2.652,0,0,0,7,7.652V18.261a2.652,2.652,0,0,0,2.652,2.652h7.072a2.652,2.652,0,0,0,2.652-2.652Z" transform="translate(-3.464 -1.464)" fill="#a1a5ae" fill-rule="evenodd"/>
    <path id="Path_31463" data-name="Path 31463" d="M5.652,2.768h8.84a.884.884,0,0,0,0-1.768H5.652A2.652,2.652,0,0,0,3,3.652V16.029a.884.884,0,0,0,1.768,0V3.652A.884.884,0,0,1,5.652,2.768Z" transform="translate(-3 -1)" fill="#a1a5ae"/>
  </g>
</svg>
