<svg xmlns="http://www.w3.org/2000/svg" xmlns:xlink="http://www.w3.org/1999/xlink" width="40" height="40" viewBox="0 0 40 40">
  <defs>
    <clipPath id="clip-Icon-2">
      <rect width="40" height="40"/>
    </clipPath>
  </defs>
  <g id="Icon-2" clip-path="url(#clip-Icon-2)">
    <g id="eye-scan-svgrepo-com" transform="translate(8.089 11.163)">
      <path id="Path_31468" data-name="Path 31468" d="M13.477,9.25A4.227,4.227,0,1,0,17.7,13.477,4.226,4.226,0,0,0,13.477,9.25Zm-1.921,4.227A1.921,1.921,0,1,1,13.477,15.4,1.921,1.921,0,0,1,11.555,13.477Z" transform="translate(-1.565 -4.639)" fill="#535353" fill-rule="evenodd"/>
      <path id="Path_31469" data-name="Path 31469" d="M5.9,11.169A13.4,13.4,0,0,1,16.161,6.25a13.4,13.4,0,0,1,10.26,4.919l.05.058A7.669,7.669,0,0,1,27.61,12.8a4.95,4.95,0,0,1,.462,2.287,4.95,4.95,0,0,1-.462,2.287,7.669,7.669,0,0,1-1.139,1.574l-.05.057a13.4,13.4,0,0,1-10.26,4.919A13.4,13.4,0,0,1,5.9,19.006l-.05-.057a7.668,7.668,0,0,1-1.139-1.574,4.95,4.95,0,0,1-.462-2.287A4.95,4.95,0,0,1,4.712,12.8a7.669,7.669,0,0,1,1.139-1.574Zm10.26-2.614a11.1,11.1,0,0,0-8.514,4.119,5.977,5.977,0,0,0-.869,1.149,2.691,2.691,0,0,0-.223,1.264,2.691,2.691,0,0,0,.223,1.264A5.977,5.977,0,0,0,7.647,17.5a11.1,11.1,0,0,0,8.514,4.119A11.1,11.1,0,0,0,24.675,17.5a5.979,5.979,0,0,0,.869-1.149,2.692,2.692,0,0,0,.223-1.264,2.692,2.692,0,0,0-.223-1.264,5.979,5.979,0,0,0-.869-1.149A11.094,11.094,0,0,0,16.161,8.555Z" transform="translate(-4.25 -6.25)" fill="#535353" fill-rule="evenodd"/>
    </g>
  </g>
</svg>
