<svg xmlns="http://www.w3.org/2000/svg" width="15.881" height="31.438" viewBox="0 0 15.881 31.438">
  <path id="Path_31455" data-name="Path 31455" d="M163.427,18.028h3.446V32.215a.508.508,0,0,0,.507.507h5.843a.507.507,0,0,0,.507-.507V18.094h3.962a.506.506,0,0,0,.5-.448l.6-5.224a.506.506,0,0,0-.446-.561.444.444,0,0,0-.058,0H173.73V8.584c0-.987.531-1.487,1.58-1.487h2.984a.507.507,0,0,0,.507-.507V1.795a.507.507,0,0,0-.507-.507h-4.112c-.029,0-.094,0-.188,0a7.88,7.88,0,0,0-5.152,1.942,5.408,5.408,0,0,0-1.8,4.8v3.829h-3.618a.507.507,0,0,0-.507.507v5.156A.507.507,0,0,0,163.427,18.028Z" transform="translate(-162.92 -1.284)" fill="#001691"/>
</svg>
