<svg xmlns="http://www.w3.org/2000/svg" xmlns:xlink="http://www.w3.org/1999/xlink" width="40" height="40" viewBox="0 0 40 40">
  <defs>
    <clipPath id="clip-Icon-7">
      <rect width="40" height="40"/>
    </clipPath>
  </defs>
  <g id="Icon-7" clip-path="url(#clip-Icon-7)">
    <path id="Path_31431" data-name="Path 31431" d="M-20256.029-1064.659a12.718,12.718,0,0,1-2.059-.167l-.412-1.719a4.777,4.777,0,0,0-4.652-3.665,4.741,4.741,0,0,0-1.355.2l-1.445.425a13.242,13.242,0,0,1-2.047-3.759l1.074-1.031a4.746,4.746,0,0,0,1.463-3.453,4.747,4.747,0,0,0-1.463-3.453l-1.074-1.03a13.23,13.23,0,0,1,2.047-3.759l1.445.431a4.747,4.747,0,0,0,1.354.2,4.779,4.779,0,0,0,4.654-3.671l.412-1.712a11.819,11.819,0,0,1,2.059-.174,11.919,11.919,0,0,1,2.068.174l.416,1.712a4.776,4.776,0,0,0,4.662,3.671,4.76,4.76,0,0,0,1.35-.2l1.436-.431a13.206,13.206,0,0,1,2.051,3.759l-1.068,1.03a4.774,4.774,0,0,0-1.475,3.453,4.772,4.772,0,0,0,1.475,3.453l1.068,1.031a13.191,13.191,0,0,1-2.051,3.759l-1.436-.425a4.784,4.784,0,0,0-1.363-.2,4.769,4.769,0,0,0-4.648,3.666l-.416,1.713A11.932,11.932,0,0,1-20256.029-1064.659Zm-.336-18.815a5.477,5.477,0,0,0-5.473,5.471,5.48,5.48,0,0,0,5.473,5.478,5.481,5.481,0,0,0,5.475-5.478A5.477,5.477,0,0,0-20256.365-1083.474Z" transform="translate(20276.023 1097.829)" fill="#535353"/>
  </g>
</svg>
