<svg xmlns="http://www.w3.org/2000/svg" width="33.582" height="33.582" viewBox="0 0 33.582 33.582">
  <path id="Path_31448" data-name="Path 31448" d="M58.208,17.268a5.6,5.6,0,1,1,5.607,5.587,5.6,5.6,0,0,1-5.607-5.587m-3.025.006a8.622,8.622,0,1,0,8.6-8.638A8.621,8.621,0,0,0,55.183,17.275ZM70.734,8.282a2.015,2.015,0,1,0,2.011-2.018,2.016,2.016,0,0,0-2.011,2.018M57.046,30.937a9.314,9.314,0,0,1-3.118-.571,5.558,5.558,0,0,1-3.193-3.18,9.308,9.308,0,0,1-.585-3.118c-.083-1.769-.1-2.3-.11-6.784s.008-5.013.085-6.785A9.307,9.307,0,0,1,50.7,7.382,5.223,5.223,0,0,1,51.95,5.448a5.185,5.185,0,0,1,1.928-1.258A9.273,9.273,0,0,1,56.994,3.6c1.77-.084,2.3-.1,6.784-.11s5.013.008,6.785.085a9.274,9.274,0,0,1,3.118.571A5.215,5.215,0,0,1,75.614,5.4a5.212,5.212,0,0,1,1.261,1.929,9.281,9.281,0,0,1,.582,3.115c.085,1.772.1,2.3.111,6.785s-.008,5.014-.085,6.784a9.333,9.333,0,0,1-.571,3.12,5.565,5.565,0,0,1-3.181,3.193,9.305,9.305,0,0,1-3.115.583c-1.77.083-2.3.1-6.785.11s-5.013-.008-6.785-.085M56.85.583a12.251,12.251,0,0,0-4.073.789,8.212,8.212,0,0,0-2.971,1.941A8.236,8.236,0,0,0,47.876,6.29a12.344,12.344,0,0,0-.773,4.078c-.079,1.792-.1,2.363-.088,6.923s.029,5.131.114,6.923a12.289,12.289,0,0,0,.789,4.072,8.578,8.578,0,0,0,4.921,4.9,12.288,12.288,0,0,0,4.075.773c1.792.079,2.363.1,6.921.088s5.132-.029,6.924-.114a12.332,12.332,0,0,0,4.073-.788,8.59,8.59,0,0,0,4.9-4.921,12.3,12.3,0,0,0,.773-4.075c.078-1.792.1-2.365.088-6.924s-.029-5.131-.114-6.921A12.3,12.3,0,0,0,79.69,6.23,8.234,8.234,0,0,0,77.75,3.26,8.213,8.213,0,0,0,74.771,1.33,12.3,12.3,0,0,0,70.694.557C68.9.478,68.332.461,63.772.469S58.641.5,56.85.583" transform="translate(-47.013 -0.467)" fill="#001691"/>
</svg>
