<svg xmlns="http://www.w3.org/2000/svg" width="31.875" height="31.478" viewBox="0 0 31.875 31.478">
  <path id="Path_31454" data-name="Path 31454" d="M134.634,11.321H141.1v3.315h.094a7.171,7.171,0,0,1,6.387-3.315c6.829,0,8.091,4.249,8.091,9.779V32.786h-6.744V22.378c0-2.38-.049-5.444-3.506-5.444-3.511,0-4.05,2.591-4.05,5.271V32.786h-6.737Zm-3.821-6.506a3.508,3.508,0,1,1-3.507-3.507,3.508,3.508,0,0,1,3.507,3.507M123.8,11.321h7.014V32.786H123.8Z" transform="translate(-123.797 -1.308)" fill="#001691" fill-rule="evenodd"/>
</svg>
