<svg xmlns="http://www.w3.org/2000/svg" xmlns:xlink="http://www.w3.org/1999/xlink" width="40" height="40" viewBox="0 0 40 40">
  <defs>
    <clipPath id="clip-Icon-5">
      <rect width="40" height="40"/>
    </clipPath>
  </defs>
  <g id="Icon-5" clip-path="url(#clip-Icon-5)">
    <path id="_x32_9-Theatre_Pillar" d="M20.814,21.713H5.035A4.8,4.8,0,0,0,0,26.748a5.028,5.028,0,0,0,5.9,4.958,2.145,2.145,0,0,0-.57-4.214V26.108A3.529,3.529,0,0,1,6.411,33V44.444H9.5V37.19a.986.986,0,1,1,1.972,0v7.253h2.907V37.19a.986.986,0,1,1,1.972,0v7.253h3.087V33a3.529,3.529,0,0,1,1.011-6.911v1.384a2.145,2.145,0,0,0-.518,4.227v0a5.031,5.031,0,0,0,5.918-4.956A4.8,4.8,0,0,0,20.814,21.713Z" transform="translate(7.076 -13.078)" fill="#535353"/>
  </g>
</svg>
