<svg xmlns="http://www.w3.org/2000/svg" width="40" height="40" viewBox="0 0 40 40">
  <path id="Union_6" data-name="Union 6" d="M12,28v-12.221a7.334,7.334,0,0,1,7.332-7.331,7.334,7.334,0,0,1,7.33,7.331V28a7.334,7.334,0,0,1-7.33,7.331A7.334,7.334,0,0,1,12,28Zm7.332,4.636a4.64,4.64,0,0,0,4.174-2.621h-2.289v-2.066h2.75v-1.3h-2.75v-2.066h2.75v-8.8a4.64,4.64,0,0,0-4.635-4.636,4.64,4.64,0,0,0-4.637,4.636v8.8h2.857v2.066h-2.857v1.3h2.857v2.066h-2.4A4.641,4.641,0,0,0,19.332,32.636Zm10.7-8.949-2.1-1.868a9.45,9.45,0,0,0,1.559-5.221,10.028,10.028,0,0,0-10.15-9.879h-.031a10.041,10.041,0,0,0-10.123,9.814,9.722,9.722,0,0,0,1.424,5.144l-1.992,1.911a12.205,12.205,0,0,1-2.205-6.991,12.315,12.315,0,0,1,3.785-8.893,13.032,13.032,0,0,1,9.143-3.68,13.036,13.036,0,0,1,9.139,3.68,12.337,12.337,0,0,1,3.783,8.893,12.349,12.349,0,0,1-2.225,7.09Zm-12.826-5.131.012-.03a2.372,2.372,0,0,0,.121-.857,1.88,1.88,0,0,0-.293-.9,2.119,2.119,0,0,0-.629-.641l-1.283-.973,1.611-.034a2.24,2.24,0,0,0,.883-.146,1.972,1.972,0,0,0,.77-.564,2.364,2.364,0,0,0,.414-.775v-.013l.525-1.524.533,1.524,0,.013a2.311,2.311,0,0,0,.414.779,1.978,1.978,0,0,0,.762.56,2.235,2.235,0,0,0,.877.146l1.619.034-1.283.973a2.26,2.26,0,0,0-.629.633,2.111,2.111,0,0,0-.3.908,2.216,2.216,0,0,0,.139.887l.461,1.537-1.322-.913a2.219,2.219,0,0,0-.8-.4,2.018,2.018,0,0,0-.48-.06,1.963,1.963,0,0,0-.471.06,2.262,2.262,0,0,0-.8.4l-1.32.921Z" fill="#535353"/>
</svg>
