<svg xmlns="http://www.w3.org/2000/svg" width="25.278" height="18.96" viewBox="0 0 25.278 18.96">
  <g id="Jump_Right-Up" data-name="Jump Right-Up" transform="translate(0 0)">
    <path id="Jump_Right-Up_Icon" data-name="Jump Right-Up Icon" d="M14.239,18.133c0,.848.539,1.081,1.2.523L24.781,10.5a1.283,1.283,0,0,0,0-2.029L15.44.3c-.664-.561-1.2-.325-1.2.523v5.49h-1.58c-6.035,0-11.2,5-12.455,10.406a9.14,9.14,0,0,0-.2,1.218c-.047.422.158.515.46.218A2.149,2.149,0,0,0,.625,18,18.106,18.106,0,0,1,12.662,12.63h1.58l0,5.5Z" transform="translate(0 0)" fill="#a1a5ae"/>
  </g>
</svg>
