<svg xmlns="http://www.w3.org/2000/svg" xmlns:xlink="http://www.w3.org/1999/xlink" width="32.185" height="32.204" viewBox="0 0 32.185 32.204">
  <defs>
    <filter id="whatsapp-svgrepo-com_1_" x="0" y="0" width="32.185" height="32.204" filterUnits="userSpaceOnUse">
      <feOffset dx="1" dy="1" input="SourceAlpha"/>
      <feGaussianBlur stdDeviation="0.5" result="blur"/>
      <feFlood/>
      <feComposite operator="in" in2="blur"/>
      <feComposite in="SourceGraphic"/>
    </filter>
  </defs>
  <g transform="matrix(1, 0, 0, 1, 0, 0)" filter="url(#whatsapp-svgrepo-com_1_)">
    <path id="whatsapp-svgrepo-com_1_2" data-name="whatsapp-svgrepo-com (1)" d="M28.823,8.235A14.328,14.328,0,0,0,18.6,4,14.492,14.492,0,0,0,6.044,25.7L4,33.2,11.666,31.2A14.46,14.46,0,0,0,28.823,8.235ZM18.6,30.521a12.009,12.009,0,0,1-6.133-1.679l-.438-.274-4.545,1.2,1.2-4.435L8.4,24.881a12.1,12.1,0,1,1,10.2,5.64ZM25.191,21.5c-.365-.183-2.136-1.059-2.464-1.168s-.584-.183-.821.183a16.434,16.434,0,0,1-1.15,1.405c-.2.256-.42.274-.785,0a9.728,9.728,0,0,1-4.91-4.289c-.383-.639.365-.6,1.059-1.971a.694.694,0,0,0,0-.639c0-.183-.821-1.971-1.113-2.683s-.584-.6-.821-.621h-.712a1.3,1.3,0,0,0-.967.456,4,4,0,0,0-1.2,3.085A6.972,6.972,0,0,0,12.779,19a16.226,16.226,0,0,0,6.188,5.476,7.028,7.028,0,0,0,4.344.913,3.651,3.651,0,0,0,2.428-1.716,2.957,2.957,0,0,0,.219-1.716A2.549,2.549,0,0,0,25.191,21.5Z" transform="translate(-3.5 -3.5)" fill="#fff"/>
  </g>
</svg>
