<svg xmlns="http://www.w3.org/2000/svg" xmlns:xlink="http://www.w3.org/1999/xlink" width="30.064" height="22.899" viewBox="0 0 30.064 22.899">
  <defs>
    <filter id="share-2-svgrepo-com" x="0" y="0" width="30.064" height="22.899" filterUnits="userSpaceOnUse">
      <feOffset dx="1" dy="1" input="SourceAlpha"/>
      <feGaussianBlur stdDeviation="0.5" result="blur"/>
      <feFlood/>
      <feComposite operator="in" in2="blur"/>
      <feComposite in="SourceGraphic"/>
    </filter>
  </defs>
  <g transform="matrix(1, 0, 0, 1, 0, 0)" filter="url(#share-2-svgrepo-com)">
    <path id="share-2-svgrepo-com-2" data-name="share-2-svgrepo-com" d="M5.5,25.9a1,1,0,0,1-1-1,19.348,19.348,0,0,1,2.448-9.506,11.02,11.02,0,0,1,9.924-5.575,16.089,16.089,0,0,1,1.73.1V8.41q0-.022,0-.043a2.488,2.488,0,0,1,1.485-2.161,2.473,2.473,0,0,1,2.589.385L30.7,13.316a2.364,2.364,0,0,1,0,3.652l-8.025,6.726A2.473,2.473,0,0,1,18.6,21.9q0-.019,0-.037V19.536a4.012,4.012,0,0,0-3.188-1.815c-3.037,0-6.825,3.989-9.058,7.694A1,1,0,0,1,5.5,25.9ZM20.6,21.84a.473.473,0,0,0,.78.329l.007-.006,8.031-6.732.01-.008a.364.364,0,0,0,0-.564l-.009-.008L21.39,8.12l-.007-.006a.473.473,0,0,0-.78.324v2.627a1,1,0,0,1-1.171.985,15.078,15.078,0,0,0-2.559-.233,9,9,0,0,0-8.208,4.6,15.574,15.574,0,0,0-1.786,4.8A23.957,23.957,0,0,1,9.02,18.9c2.239-2.108,4.391-3.178,6.4-3.178a6.1,6.1,0,0,1,5,2.9,1,1,0,0,1,.19.586Z" transform="translate(-4 -5.5)" fill="#fff"/>
  </g>
</svg>
