<svg xmlns="http://www.w3.org/2000/svg" xmlns:xlink="http://www.w3.org/1999/xlink" width="40" height="40" viewBox="0 0 40 40">
  <defs>
    <clipPath id="clip-Icon-6">
      <rect width="40" height="40"/>
    </clipPath>
  </defs>
  <g id="Icon-6" clip-path="url(#clip-Icon-6)">
    <path id="star-sharp-svgrepo-com" d="M15.695,9.2l-.859,2.471a3.735,3.735,0,0,1-.671,1.288,3.215,3.215,0,0,1-1.248.907,3.735,3.735,0,0,1-1.433.24l-2.615.053,2.086,1.581a3.737,3.737,0,0,1,1.017,1.036,3.217,3.217,0,0,1,.476,1.467,3.737,3.737,0,0,1-.214,1.437l-.757,2.5,2.147-1.494a3.743,3.743,0,0,1,1.3-.648,3.213,3.213,0,0,1,1.546,0,3.741,3.741,0,0,1,1.3.647l2.147,1.494-.758-2.5a3.74,3.74,0,0,1-.214-1.437,3.219,3.219,0,0,1,.478-1.468,3.742,3.742,0,0,1,1.017-1.035l2.084-1.58L19.905,14.1a3.733,3.733,0,0,1-1.432-.24,3.214,3.214,0,0,1-1.248-.906,3.734,3.734,0,0,1-.672-1.289L15.695,9.2m0-6.173a.7.7,0,0,1,.334.084c.241.13.4.6.73,1.537l2.156,6.2a1.6,1.6,0,0,0,.223.5.7.7,0,0,0,.274.2,1.6,1.6,0,0,0,.544.057l6.564.134c.993.02,1.489.03,1.688.219a.7.7,0,0,1,.207.636c-.049.27-.445.569-1.236,1.17l-5.232,3.967a1.608,1.608,0,0,0-.407.366.705.705,0,0,0-.1.323,1.606,1.606,0,0,0,.114.535l1.9,6.284c.288.951.431,1.426.313,1.673a.7.7,0,0,1-.541.393c-.271.036-.679-.247-1.494-.814l-5.389-3.75a1.609,1.609,0,0,0-.474-.274.7.7,0,0,0-.339,0,1.609,1.609,0,0,0-.474.274l-5.389,3.75c-.815.567-1.223.851-1.494.814a.7.7,0,0,1-.541-.393c-.119-.247.025-.722.313-1.673l1.9-6.284a1.6,1.6,0,0,0,.114-.535.7.7,0,0,0-.1-.323,1.608,1.608,0,0,0-.407-.366L4.211,13.762c-.791-.6-1.187-.9-1.236-1.17a.7.7,0,0,1,.207-.636c.2-.189.695-.2,1.688-.219l6.564-.134a1.6,1.6,0,0,0,.544-.057.7.7,0,0,0,.274-.2,1.6,1.6,0,0,0,.223-.5l2.156-6.2c.326-.938.489-1.407.73-1.537A.7.7,0,0,1,15.695,3.023Z" transform="translate(4.305 4.836)" fill="#535353"/>
  </g>
</svg>
