<svg xmlns="http://www.w3.org/2000/svg" width="19.417" height="19.449" viewBox="0 0 19.417 19.449">
  <g id="whats-app-whatsapp-whatsapp-icon-svgrepo-com" transform="translate(0 0)">
    <path id="Subtraction_1" data-name="Subtraction 1" d="M.434,19.449H.362a.362.362,0,0,1-.343-.477l1.427-4.2A9.727,9.727,0,0,1,13.4.708a9.7,9.7,0,0,1,4.209,14.6A9.731,9.731,0,0,1,9.681,19.4,9.646,9.646,0,0,1,5.5,18.448l-5.063,1ZM6.2,3.761a1.036,1.036,0,0,0-.677.251,3.47,3.47,0,0,0-1.3,2.951c.207,1.919,2.106,4.349,2.775,5.017a13.376,13.376,0,0,0,2.045,1.559,7.764,7.764,0,0,0,2.972,1.215c.062,0,.116,0,.166,0s.1,0,.166,0a3.548,3.548,0,0,0,2.629-1.312,1.08,1.08,0,0,0,.249-.722l-.032-.976a.361.361,0,0,0-.234-.325,18.051,18.051,0,0,0-2.98-.918c-.455,0-.789.384-1.084.723-.094.106-.162.18-.209.227a10.374,10.374,0,0,1-1.864-1.3,10.371,10.371,0,0,1-1.3-1.864c.059-.063.158-.15.227-.21.339-.3.723-.63.723-1.066a18.736,18.736,0,0,0-.917-2.979.361.361,0,0,0-.325-.236l-.975-.032Z" transform="translate(0 0)" fill="#a1a5ae"/>
  </g>
</svg>
