<svg xmlns="http://www.w3.org/2000/svg" xmlns:xlink="http://www.w3.org/1999/xlink" width="40" height="40" viewBox="0 0 40 40">
  <defs>
    <clipPath id="clip-Icon-9">
      <rect width="40" height="40"/>
    </clipPath>
  </defs>
  <g id="Icon-9" clip-path="url(#clip-Icon-9)">
    <g id="Icons" transform="translate(178.746 -105.806)">
      <g id="Color-">
        <path id="Youtube" d="M212.1,382.791v-8.633l8.243,4.331Zm18.1-10.129a6.68,6.68,0,0,0-1.213-3.05,4.342,4.342,0,0,0-3.057-1.3C221.666,368,215.262,368,215.262,368h-.013s-6.4,0-10.674.311a4.343,4.343,0,0,0-3.058,1.3,6.674,6.674,0,0,0-1.212,3.05,46.809,46.809,0,0,0-.305,4.973v2.331a46.786,46.786,0,0,0,.305,4.973,6.674,6.674,0,0,0,1.212,3.05,5.149,5.149,0,0,0,3.365,1.314c2.441.236,10.373.309,10.373.309s6.411-.01,10.68-.321a4.348,4.348,0,0,0,3.057-1.3,6.68,6.68,0,0,0,1.213-3.05,46.783,46.783,0,0,0,.305-4.973v-2.331a46.807,46.807,0,0,0-.305-4.973Z" transform="translate(-374 -253)" fill="#ce1312" fill-rule="evenodd"/>
      </g>
    </g>
  </g>
</svg>
