<svg xmlns="http://www.w3.org/2000/svg" width="45.334" height="33.477" viewBox="0 0 45.334 33.477">
  <g id="Group_7793" data-name="Group 7793" transform="translate(-72.772 -4449.426)">
    <path id="Path_31450" data-name="Path 31450" d="M22.7,0A115.9,115.9,0,0,1,38.957,1.156a6.429,6.429,0,0,1,3.64,1.8A6.517,6.517,0,0,1,44.476,6.6a59.18,59.18,0,0,1,.858,10.142,59.194,59.194,0,0,1-.86,10.151l0,.009A6.608,6.608,0,0,1,38.9,32.321a115.075,115.075,0,0,1-16.215,1.156A115.919,115.919,0,0,1,6.431,32.321,6.6,6.6,0,0,1,.859,26.883a58.583,58.583,0,0,1,.054-20.3l0-.008a6.607,6.607,0,0,1,5.57-5.424A115.082,115.082,0,0,1,22.7,0ZM42.032,26.457a56.707,56.707,0,0,0,.822-9.719,56.688,56.688,0,0,0-.823-9.724l0-.019a4.071,4.071,0,0,0-3.417-3.384,112.14,112.14,0,0,0-31.781,0H6.823A4.133,4.133,0,0,0,3.355,7.018,56.1,56.1,0,0,0,3.3,26.462l0,.014A4.1,4.1,0,0,0,6.77,29.864h.007A113.434,113.434,0,0,0,22.687,31a112.579,112.579,0,0,0,15.868-1.131h.008a3.981,3.981,0,0,0,2.269-1.115A4.265,4.265,0,0,0,42.032,26.457Z" transform="translate(72.772 4449.427)" fill="#001691"/>
    <path id="Path_31452" data-name="Path 31452" d="M13.775,24.087V5.581l15.191,9.254Zm2.48-14.092v9.678L24.2,14.834Z" transform="translate(76.244 4451.332)" fill="#001691"/>
  </g>
</svg>
